<?xml version="1.0" encoding="utf-8" standalone="no"?>
<!DOCTYPE svg PUBLIC "-//W3C//DTD SVG 1.1//EN"
  "http://www.w3.org/Graphics/SVG/1.1/DTD/svg11.dtd">
<svg xmlns:xlink="http://www.w3.org/1999/xlink" width="720pt" height="432pt" viewBox="0 0 720 432" xmlns="http://www.w3.org/2000/svg" version="1.1">
 <metadata>
  <rdf:RDF xmlns:dc="http://purl.org/dc/elements/1.1/" xmlns:cc="http://creativecommons.org/ns#" xmlns:rdf="http://www.w3.org/1999/02/22-rdf-syntax-ns#">
   <cc:Work>
    <dc:type rdf:resource="http://purl.org/dc/dcmitype/StillImage"/>
    <dc:format>image/svg+xml</dc:format>
    <dc:creator>
     <cc:Agent>
      <dc:title>Matplotlib v3.11.2, https://matplotlib.org/</dc:title>
     </cc:Agent>
    </dc:creator>
   </cc:Work>
  </rdf:RDF>
 </metadata>
 <defs>
  <style type="text/css">*{stroke-linejoin: round; stroke-linecap: butt}</style>
 </defs>
 <g id="figure_1">
  <g id="patch_1">
   <path d="M 0 432
L 720 432
L 720 0
L 0 0
z
" style="fill: #ffffff"/>
  </g>
  <g id="axes_1">
   <g id="patch_2">
    <path d="M 186.38774 397.998979
L 716.99976 397.998979
L 716.99976 18.118365
L 186.38774 18.118365
z
" style="fill: #ffffff"/>
   </g>
   <g id="patch_3">
    <path d="M 186.38774 380.731678
L 225.385408 380.731678
L 225.385408 368.05843
L 186.38774 368.05843
z
" clip-path="url(#p1d00529823)" style="fill: #348b99"/>
   </g>
   <g id="patch_4">
    <path d="M 186.38774 364.890118
L 235.134825 364.890118
L 235.134825 352.21687
L 186.38774 352.21687
z
" clip-path="url(#p1d00529823)" style="fill: #348b99"/>
   </g>
   <g id="patch_5">
    <path d="M 186.38774 349.048558
L 249.75895 349.048558
L 249.75895 336.37531
L 186.38774 336.37531
z
" clip-path="url(#p1d00529823)" style="fill: #348b99"/>
   </g>
   <g id="patch_6">
    <path d="M 186.38774 333.206998
L 283.88191 333.206998
L 283.88191 320.533749
L 186.38774 320.533749
z
" clip-path="url(#p1d00529823)" style="fill: #348b99"/>
   </g>
   <g id="patch_7">
    <path d="M 186.38774 317.365437
L 288.756618 317.365437
L 288.756618 304.692189
L 186.38774 304.692189
z
" clip-path="url(#p1d00529823)" style="fill: #348b99"/>
   </g>
   <g id="patch_8">
    <path d="M 186.38774 301.523877
L 298.506035 301.523877
L 298.506035 288.850629
L 186.38774 288.850629
z
" clip-path="url(#p1d00529823)" style="fill: #348b99"/>
   </g>
   <g id="patch_9">
    <path d="M 186.38774 285.682317
L 308.255452 285.682317
L 308.255452 273.009069
L 186.38774 273.009069
z
" clip-path="url(#p1d00529823)" style="fill: #348b99"/>
   </g>
   <g id="patch_10">
    <path d="M 186.38774 269.840757
L 311.505258 269.840757
L 311.505258 257.167509
L 186.38774 257.167509
z
" clip-path="url(#p1d00529823)" style="fill: #348b99"/>
   </g>
   <g id="patch_11">
    <path d="M 186.38774 253.999196
L 311.505258 253.999196
L 311.505258 241.325948
L 186.38774 241.325948
z
" clip-path="url(#p1d00529823)" style="fill: #348b99"/>
   </g>
   <g id="patch_12">
    <path d="M 186.38774 238.157636
L 321.254675 238.157636
L 321.254675 225.484388
L 186.38774 225.484388
z
" clip-path="url(#p1d00529823)" style="fill: #348b99"/>
   </g>
   <g id="patch_13">
    <path d="M 186.38774 222.316076
L 332.628995 222.316076
L 332.628995 209.642828
L 186.38774 209.642828
z
" clip-path="url(#p1d00529823)" style="fill: #348b99"/>
   </g>
   <g id="patch_14">
    <path d="M 186.38774 206.474516
L 337.503703 206.474516
L 337.503703 193.801268
L 186.38774 193.801268
z
" clip-path="url(#p1d00529823)" style="fill: #348b99"/>
   </g>
   <g id="patch_15">
    <path d="M 186.38774 190.632956
L 350.502926 190.632956
L 350.502926 177.959707
L 186.38774 177.959707
z
" clip-path="url(#p1d00529823)" style="fill: #348b99"/>
   </g>
   <g id="patch_16">
    <path d="M 186.38774 174.791395
L 358.62744 174.791395
L 358.62744 162.118147
L 186.38774 162.118147
z
" clip-path="url(#p1d00529823)" style="fill: #348b99"/>
   </g>
   <g id="patch_17">
    <path d="M 186.38774 158.949835
L 378.126274 158.949835
L 378.126274 146.276587
L 186.38774 146.276587
z
" clip-path="url(#p1d00529823)" style="fill: #348b99"/>
   </g>
   <g id="patch_18">
    <path d="M 186.38774 143.108275
L 384.625886 143.108275
L 384.625886 130.435027
L 186.38774 130.435027
z
" clip-path="url(#p1d00529823)" style="fill: #348b99"/>
   </g>
   <g id="patch_19">
    <path d="M 186.38774 127.266715
L 417.123942 127.266715
L 417.123942 114.593467
L 186.38774 114.593467
z
" clip-path="url(#p1d00529823)" style="fill: #348b99"/>
   </g>
   <g id="patch_20">
    <path d="M 186.38774 111.425155
L 460.996319 111.425155
L 460.996319 98.751906
L 186.38774 98.751906
z
" clip-path="url(#p1d00529823)" style="fill: #348b99"/>
   </g>
   <g id="patch_21">
    <path d="M 186.38774 95.583594
L 464.246124 95.583594
L 464.246124 82.910346
L 186.38774 82.910346
z
" clip-path="url(#p1d00529823)" style="fill: #348b99"/>
   </g>
   <g id="patch_22">
    <path d="M 186.38774 79.742034
L 496.744181 79.742034
L 496.744181 67.068786
L 186.38774 67.068786
z
" clip-path="url(#p1d00529823)" style="fill: #348b99"/>
   </g>
   <g id="patch_23">
    <path d="M 186.38774 63.900474
L 519.492821 63.900474
L 519.492821 51.227226
L 186.38774 51.227226
z
" clip-path="url(#p1d00529823)" style="fill: #348b99"/>
   </g>
   <g id="patch_24">
    <path d="M 186.38774 48.058914
L 691.732521 48.058914
L 691.732521 35.385666
L 186.38774 35.385666
z
" clip-path="url(#p1d00529823)" style="fill: #348b99"/>
   </g>
   <g id="matplotlib.axis_1">
    <g id="xtick_1">
     <g id="line2d_1">
      <defs>
       <path id="mb58266c4af" d="M 0 0
L 0 3.5
" style="stroke: #000000; stroke-width: 0.8"/>
      </defs>
      <g>
       <use xlink:href="#mb58266c4af" x="186.38774" y="397.998979" style="stroke: #000000; stroke-width: 0.8"/>
      </g>
     </g>
     <g id="text_1">
      <!-- 0.0 -->
      <g transform="translate(178.436178 412.596635) scale(0.1 -0.1)">
       <defs>
        <path id="DejaVuSans-13" d="M 2034 4250
Q 1547 4250 1301 3770
Q 1056 3291 1056 2328
Q 1056 1369 1301 889
Q 1547 409 2034 409
Q 2525 409 2770 889
Q 3016 1369 3016 2328
Q 3016 3291 2770 3770
Q 2525 4250 2034 4250
z
M 2034 4750
Q 2819 4750 3233 4129
Q 3647 3509 3647 2328
Q 3647 1150 3233 529
Q 2819 -91 2034 -91
Q 1250 -91 836 529
Q 422 1150 422 2328
Q 422 3509 836 4129
Q 1250 4750 2034 4750
z
" transform="scale(0.015625)"/>
        <path id="DejaVuSans-11" d="M 684 794
L 1344 794
L 1344 0
L 684 0
L 684 794
z
" transform="scale(0.015625)"/>
       </defs>
       <use xlink:href="#DejaVuSans-13"/>
       <use xlink:href="#DejaVuSans-11" transform="translate(63.625 0)"/>
       <use xlink:href="#DejaVuSans-13" transform="translate(95.40625 0)"/>
      </g>
     </g>
    </g>
    <g id="xtick_2">
     <g id="line2d_2">
      <g>
       <use xlink:href="#mb58266c4af" x="267.632882" y="397.998979" style="stroke: #000000; stroke-width: 0.8"/>
      </g>
     </g>
     <g id="text_2">
      <!-- 0.1 -->
      <g transform="translate(259.681319 412.596635) scale(0.1 -0.1)">
       <defs>
        <path id="DejaVuSans-14" d="M 794 531
L 1825 531
L 1825 4091
L 703 3866
L 703 4441
L 1819 4666
L 2450 4666
L 2450 531
L 3481 531
L 3481 0
L 794 0
L 794 531
z
" transform="scale(0.015625)"/>
       </defs>
       <use xlink:href="#DejaVuSans-13"/>
       <use xlink:href="#DejaVuSans-11" transform="translate(63.625 0)"/>
       <use xlink:href="#DejaVuSans-14" transform="translate(95.40625 0)"/>
      </g>
     </g>
    </g>
    <g id="xtick_3">
     <g id="line2d_3">
      <g>
       <use xlink:href="#mb58266c4af" x="348.878023" y="397.998979" style="stroke: #000000; stroke-width: 0.8"/>
      </g>
     </g>
     <g id="text_3">
      <!-- 0.2 -->
      <g transform="translate(340.926461 412.596635) scale(0.1 -0.1)">
       <defs>
        <path id="DejaVuSans-15" d="M 1228 531
L 3431 531
L 3431 0
L 469 0
L 469 531
Q 828 903 1448 1529
Q 2069 2156 2228 2338
Q 2531 2678 2651 2914
Q 2772 3150 2772 3378
Q 2772 3750 2511 3984
Q 2250 4219 1831 4219
Q 1534 4219 1204 4116
Q 875 4013 500 3803
L 500 4441
Q 881 4594 1212 4672
Q 1544 4750 1819 4750
Q 2544 4750 2975 4387
Q 3406 4025 3406 3419
Q 3406 3131 3298 2873
Q 3191 2616 2906 2266
Q 2828 2175 2409 1742
Q 1991 1309 1228 531
z
" transform="scale(0.015625)"/>
       </defs>
       <use xlink:href="#DejaVuSans-13"/>
       <use xlink:href="#DejaVuSans-11" transform="translate(63.625 0)"/>
       <use xlink:href="#DejaVuSans-15" transform="translate(95.40625 0)"/>
      </g>
     </g>
    </g>
    <g id="xtick_4">
     <g id="line2d_4">
      <g>
       <use xlink:href="#mb58266c4af" x="430.123165" y="397.998979" style="stroke: #000000; stroke-width: 0.8"/>
      </g>
     </g>
     <g id="text_4">
      <!-- 0.3 -->
      <g transform="translate(422.171602 412.596635) scale(0.1 -0.1)">
       <defs>
        <path id="DejaVuSans-16" d="M 2597 2516
Q 3050 2419 3304 2112
Q 3559 1806 3559 1356
Q 3559 666 3084 287
Q 2609 -91 1734 -91
Q 1441 -91 1130 -33
Q 819 25 488 141
L 488 750
Q 750 597 1062 519
Q 1375 441 1716 441
Q 2309 441 2620 675
Q 2931 909 2931 1356
Q 2931 1769 2642 2001
Q 2353 2234 1838 2234
L 1294 2234
L 1294 2753
L 1863 2753
Q 2328 2753 2575 2939
Q 2822 3125 2822 3475
Q 2822 3834 2567 4026
Q 2313 4219 1838 4219
Q 1578 4219 1281 4162
Q 984 4106 628 3988
L 628 4550
Q 988 4650 1302 4700
Q 1616 4750 1894 4750
Q 2613 4750 3031 4423
Q 3450 4097 3450 3541
Q 3450 3153 3228 2886
Q 3006 2619 2597 2516
z
" transform="scale(0.015625)"/>
       </defs>
       <use xlink:href="#DejaVuSans-13"/>
       <use xlink:href="#DejaVuSans-11" transform="translate(63.625 0)"/>
       <use xlink:href="#DejaVuSans-16" transform="translate(95.40625 0)"/>
      </g>
     </g>
    </g>
    <g id="xtick_5">
     <g id="line2d_5">
      <g>
       <use xlink:href="#mb58266c4af" x="511.368307" y="397.998979" style="stroke: #000000; stroke-width: 0.8"/>
      </g>
     </g>
     <g id="text_5">
      <!-- 0.4 -->
      <g transform="translate(503.416744 412.596635) scale(0.1 -0.1)">
       <defs>
        <path id="DejaVuSans-17" d="M 2419 4116
L 825 1625
L 2419 1625
L 2419 4116
z
M 2253 4666
L 3047 4666
L 3047 1625
L 3713 1625
L 3713 1100
L 3047 1100
L 3047 0
L 2419 0
L 2419 1100
L 313 1100
L 313 1709
L 2253 4666
z
" transform="scale(0.015625)"/>
       </defs>
       <use xlink:href="#DejaVuSans-13"/>
       <use xlink:href="#DejaVuSans-11" transform="translate(63.625 0)"/>
       <use xlink:href="#DejaVuSans-17" transform="translate(95.40625 0)"/>
      </g>
     </g>
    </g>
    <g id="xtick_6">
     <g id="line2d_6">
      <g>
       <use xlink:href="#mb58266c4af" x="592.613448" y="397.998979" style="stroke: #000000; stroke-width: 0.8"/>
      </g>
     </g>
     <g id="text_6">
      <!-- 0.5 -->
      <g transform="translate(584.661886 412.596635) scale(0.1 -0.1)">
       <defs>
        <path id="DejaVuSans-18" d="M 691 4666
L 3169 4666
L 3169 4134
L 1269 4134
L 1269 2991
Q 1406 3038 1543 3061
Q 1681 3084 1819 3084
Q 2600 3084 3056 2656
Q 3513 2228 3513 1497
Q 3513 744 3044 326
Q 2575 -91 1722 -91
Q 1428 -91 1123 -41
Q 819 9 494 109
L 494 744
Q 775 591 1075 516
Q 1375 441 1709 441
Q 2250 441 2565 725
Q 2881 1009 2881 1497
Q 2881 1984 2565 2268
Q 2250 2553 1709 2553
Q 1456 2553 1204 2497
Q 953 2441 691 2322
L 691 4666
z
" transform="scale(0.015625)"/>
       </defs>
       <use xlink:href="#DejaVuSans-13"/>
       <use xlink:href="#DejaVuSans-11" transform="translate(63.625 0)"/>
       <use xlink:href="#DejaVuSans-18" transform="translate(95.40625 0)"/>
      </g>
     </g>
    </g>
    <g id="xtick_7">
     <g id="line2d_7">
      <g>
       <use xlink:href="#mb58266c4af" x="673.85859" y="397.998979" style="stroke: #000000; stroke-width: 0.8"/>
      </g>
     </g>
     <g id="text_7">
      <!-- 0.6 -->
      <g transform="translate(665.907027 412.596635) scale(0.1 -0.1)">
       <defs>
        <path id="DejaVuSans-19" d="M 2113 2584
Q 1688 2584 1439 2293
Q 1191 2003 1191 1497
Q 1191 994 1439 701
Q 1688 409 2113 409
Q 2538 409 2786 701
Q 3034 994 3034 1497
Q 3034 2003 2786 2293
Q 2538 2584 2113 2584
z
M 3366 4563
L 3366 3988
Q 3128 4100 2886 4159
Q 2644 4219 2406 4219
Q 1781 4219 1451 3797
Q 1122 3375 1075 2522
Q 1259 2794 1537 2939
Q 1816 3084 2150 3084
Q 2853 3084 3261 2657
Q 3669 2231 3669 1497
Q 3669 778 3244 343
Q 2819 -91 2113 -91
Q 1303 -91 875 529
Q 447 1150 447 2328
Q 447 3434 972 4092
Q 1497 4750 2381 4750
Q 2619 4750 2861 4703
Q 3103 4656 3366 4563
z
" transform="scale(0.015625)"/>
       </defs>
       <use xlink:href="#DejaVuSans-13"/>
       <use xlink:href="#DejaVuSans-11" transform="translate(63.625 0)"/>
       <use xlink:href="#DejaVuSans-19" transform="translate(95.40625 0)"/>
      </g>
     </g>
    </g>
    <g id="text_8">
     <!-- MAE over five forecast years (°C) -->
     <g transform="translate(368.646094 426.597416) scale(0.1 -0.1)">
      <defs>
       <path id="DejaVuSans-30" d="M 628 4666
L 1569 4666
L 2759 1491
L 3956 4666
L 4897 4666
L 4897 0
L 4281 0
L 4281 4097
L 3078 897
L 2444 897
L 1241 4097
L 1241 0
L 628 0
L 628 4666
z
" transform="scale(0.015625)"/>
       <path id="DejaVuSans-24" d="M 2188 4044
L 1331 1722
L 3047 1722
L 2188 4044
z
M 1831 4666
L 2547 4666
L 4325 0
L 3669 0
L 3244 1197
L 1141 1197
L 716 0
L 50 0
L 1831 4666
z
" transform="scale(0.015625)"/>
       <path id="DejaVuSans-28" d="M 628 4666
L 3578 4666
L 3578 4134
L 1259 4134
L 1259 2753
L 3481 2753
L 3481 2222
L 1259 2222
L 1259 531
L 3634 531
L 3634 0
L 628 0
L 628 4666
z
" transform="scale(0.015625)"/>
       <path id="DejaVuSans-3" transform="scale(0.015625)"/>
       <path id="DejaVuSans-52" d="M 1959 3097
Q 1497 3097 1228 2736
Q 959 2375 959 1747
Q 959 1119 1226 758
Q 1494 397 1959 397
Q 2419 397 2687 759
Q 2956 1122 2956 1747
Q 2956 2369 2687 2733
Q 2419 3097 1959 3097
z
M 1959 3584
Q 2709 3584 3137 3096
Q 3566 2609 3566 1747
Q 3566 888 3137 398
Q 2709 -91 1959 -91
Q 1206 -91 779 398
Q 353 888 353 1747
Q 353 2609 779 3096
Q 1206 3584 1959 3584
z
" transform="scale(0.015625)"/>
       <path id="DejaVuSans-59" d="M 191 3500
L 800 3500
L 1894 563
L 2988 3500
L 3597 3500
L 2284 0
L 1503 0
L 191 3500
z
" transform="scale(0.015625)"/>
       <path id="DejaVuSans-48" d="M 3597 1894
L 3597 1613
L 953 1613
Q 991 1019 1311 708
Q 1631 397 2203 397
Q 2534 397 2845 478
Q 3156 559 3463 722
L 3463 178
Q 3153 47 2828 -22
Q 2503 -91 2169 -91
Q 1331 -91 842 396
Q 353 884 353 1716
Q 353 2575 817 3079
Q 1281 3584 2069 3584
Q 2775 3584 3186 3129
Q 3597 2675 3597 1894
z
M 3022 2063
Q 3016 2534 2758 2815
Q 2500 3097 2075 3097
Q 1594 3097 1305 2825
Q 1016 2553 972 2059
L 3022 2063
z
" transform="scale(0.015625)"/>
       <path id="DejaVuSans-55" d="M 2631 2963
Q 2534 3019 2420 3045
Q 2306 3072 2169 3072
Q 1681 3072 1420 2755
Q 1159 2438 1159 1844
L 1159 0
L 581 0
L 581 3500
L 1159 3500
L 1159 2956
Q 1341 3275 1631 3429
Q 1922 3584 2338 3584
Q 2397 3584 2469 3576
Q 2541 3569 2628 3553
L 2631 2963
z
" transform="scale(0.015625)"/>
       <path id="DejaVuSans-13af" d="M 3431 3500
L 3431 0
L 2853 0
L 2853 3053
L 1275 3053
L 1275 0
L 697 0
L 697 3053
L 147 3053
L 147 3500
L 697 3500
L 697 3744
Q 697 4316 967 4589
Q 1238 4863 1797 4863
L 2375 4863
L 2375 4384
L 1825 4384
Q 1516 4384 1395 4259
Q 1275 4134 1275 3809
L 1275 3500
L 3431 3500
z
M 2853 4856
L 3431 4856
L 3431 4128
L 2853 4128
L 2853 4856
z
" transform="scale(0.015625)"/>
       <path id="DejaVuSans-49" d="M 2375 4863
L 2375 4384
L 1825 4384
Q 1516 4384 1395 4259
Q 1275 4134 1275 3809
L 1275 3500
L 2222 3500
L 2222 3053
L 1275 3053
L 1275 0
L 697 0
L 697 3053
L 147 3053
L 147 3500
L 697 3500
L 697 3744
Q 697 4328 969 4595
Q 1241 4863 1831 4863
L 2375 4863
z
" transform="scale(0.015625)"/>
       <path id="DejaVuSans-46" d="M 3122 3366
L 3122 2828
Q 2878 2963 2633 3030
Q 2388 3097 2138 3097
Q 1578 3097 1268 2742
Q 959 2388 959 1747
Q 959 1106 1268 751
Q 1578 397 2138 397
Q 2388 397 2633 464
Q 2878 531 3122 666
L 3122 134
Q 2881 22 2623 -34
Q 2366 -91 2075 -91
Q 1284 -91 818 406
Q 353 903 353 1747
Q 353 2603 823 3093
Q 1294 3584 2113 3584
Q 2378 3584 2631 3529
Q 2884 3475 3122 3366
z
" transform="scale(0.015625)"/>
       <path id="DejaVuSans-44" d="M 2194 1759
Q 1497 1759 1228 1600
Q 959 1441 959 1056
Q 959 750 1161 570
Q 1363 391 1709 391
Q 2188 391 2477 730
Q 2766 1069 2766 1631
L 2766 1759
L 2194 1759
z
M 3341 1997
L 3341 0
L 2766 0
L 2766 531
Q 2569 213 2275 61
Q 1981 -91 1556 -91
Q 1019 -91 701 211
Q 384 513 384 1019
Q 384 1609 779 1909
Q 1175 2209 1959 2209
L 2766 2209
L 2766 2266
Q 2766 2663 2505 2880
Q 2244 3097 1772 3097
Q 1472 3097 1187 3025
Q 903 2953 641 2809
L 641 3341
Q 956 3463 1253 3523
Q 1550 3584 1831 3584
Q 2591 3584 2966 3190
Q 3341 2797 3341 1997
z
" transform="scale(0.015625)"/>
       <path id="DejaVuSans-56" d="M 2834 3397
L 2834 2853
Q 2591 2978 2328 3040
Q 2066 3103 1784 3103
Q 1356 3103 1142 2972
Q 928 2841 928 2578
Q 928 2378 1081 2264
Q 1234 2150 1697 2047
L 1894 2003
Q 2506 1872 2764 1633
Q 3022 1394 3022 966
Q 3022 478 2636 193
Q 2250 -91 1575 -91
Q 1294 -91 989 -36
Q 684 19 347 128
L 347 722
Q 666 556 975 473
Q 1284 391 1588 391
Q 1994 391 2212 530
Q 2431 669 2431 922
Q 2431 1156 2273 1281
Q 2116 1406 1581 1522
L 1381 1569
Q 847 1681 609 1914
Q 372 2147 372 2553
Q 372 3047 722 3315
Q 1072 3584 1716 3584
Q 2034 3584 2315 3537
Q 2597 3491 2834 3397
z
" transform="scale(0.015625)"/>
       <path id="DejaVuSans-57" d="M 1172 4494
L 1172 3500
L 2356 3500
L 2356 3053
L 1172 3053
L 1172 1153
Q 1172 725 1289 603
Q 1406 481 1766 481
L 2356 481
L 2356 0
L 1766 0
Q 1100 0 847 248
Q 594 497 594 1153
L 594 3053
L 172 3053
L 172 3500
L 594 3500
L 594 4494
L 1172 4494
z
" transform="scale(0.015625)"/>
       <path id="DejaVuSans-5c" d="M 2059 -325
Q 1816 -950 1584 -1140
Q 1353 -1331 966 -1331
L 506 -1331
L 506 -850
L 844 -850
Q 1081 -850 1212 -737
Q 1344 -625 1503 -206
L 1606 56
L 191 3500
L 800 3500
L 1894 763
L 2988 3500
L 3597 3500
L 2059 -325
z
" transform="scale(0.015625)"/>
       <path id="DejaVuSans-b" d="M 1984 4856
Q 1566 4138 1362 3434
Q 1159 2731 1159 2009
Q 1159 1288 1364 580
Q 1569 -128 1984 -844
L 1484 -844
Q 1016 -109 783 600
Q 550 1309 550 2009
Q 550 2706 781 3412
Q 1013 4119 1484 4856
L 1984 4856
z
" transform="scale(0.015625)"/>
       <path id="DejaVuSans-72" d="M 1600 4347
Q 1350 4347 1178 4173
Q 1006 4000 1006 3750
Q 1006 3503 1178 3333
Q 1350 3163 1600 3163
Q 1850 3163 2022 3333
Q 2194 3503 2194 3750
Q 2194 3997 2020 4172
Q 1847 4347 1600 4347
z
M 1600 4750
Q 1800 4750 1984 4673
Q 2169 4597 2303 4453
Q 2447 4313 2519 4134
Q 2591 3956 2591 3750
Q 2591 3338 2302 3052
Q 2013 2766 1594 2766
Q 1172 2766 890 3047
Q 609 3328 609 3750
Q 609 4169 896 4459
Q 1184 4750 1600 4750
z
" transform="scale(0.015625)"/>
       <path id="DejaVuSans-26" d="M 4122 4306
L 4122 3641
Q 3803 3938 3442 4084
Q 3081 4231 2675 4231
Q 1875 4231 1450 3742
Q 1025 3253 1025 2328
Q 1025 1406 1450 917
Q 1875 428 2675 428
Q 3081 428 3442 575
Q 3803 722 4122 1019
L 4122 359
Q 3791 134 3420 21
Q 3050 -91 2638 -91
Q 1578 -91 968 557
Q 359 1206 359 2328
Q 359 3453 968 4101
Q 1578 4750 2638 4750
Q 3056 4750 3426 4639
Q 3797 4528 4122 4306
z
" transform="scale(0.015625)"/>
       <path id="DejaVuSans-c" d="M 513 4856
L 1013 4856
Q 1481 4119 1714 3412
Q 1947 2706 1947 2009
Q 1947 1309 1714 600
Q 1481 -109 1013 -844
L 513 -844
Q 928 -128 1133 580
Q 1338 1288 1338 2009
Q 1338 2731 1133 3434
Q 928 4138 513 4856
z
" transform="scale(0.015625)"/>
      </defs>
      <use xlink:href="#DejaVuSans-30"/>
      <use xlink:href="#DejaVuSans-24" transform="translate(86.28125 0)"/>
      <use xlink:href="#DejaVuSans-28" transform="translate(154.6875 0)"/>
      <use xlink:href="#DejaVuSans-3" transform="translate(217.875 0)"/>
      <use xlink:href="#DejaVuSans-52" transform="translate(249.65625 0)"/>
      <use xlink:href="#DejaVuSans-59" transform="translate(310.84375 0)"/>
      <use xlink:href="#DejaVuSans-48" transform="translate(370.03125 0)"/>
      <use xlink:href="#DejaVuSans-55" transform="translate(431.5625 0)"/>
      <use xlink:href="#DejaVuSans-3" transform="translate(472.671875 0)"/>
      <use xlink:href="#DejaVuSans-13af" transform="translate(504.453125 0)"/>
      <use xlink:href="#DejaVuSans-59" transform="translate(567.4375 0)"/>
      <use xlink:href="#DejaVuSans-48" transform="translate(626.625 0)"/>
      <use xlink:href="#DejaVuSans-3" transform="translate(688.15625 0)"/>
      <use xlink:href="#DejaVuSans-49" transform="translate(719.9375 0)"/>
      <use xlink:href="#DejaVuSans-52" transform="translate(755.140625 0)"/>
      <use xlink:href="#DejaVuSans-55" transform="translate(816.328125 0)"/>
      <use xlink:href="#DejaVuSans-48" transform="translate(855.234375 0)"/>
      <use xlink:href="#DejaVuSans-46" transform="translate(916.765625 0)"/>
      <use xlink:href="#DejaVuSans-44" transform="translate(971.75 0)"/>
      <use xlink:href="#DejaVuSans-56" transform="translate(1033.03125 0)"/>
      <use xlink:href="#DejaVuSans-57" transform="translate(1085.125 0)"/>
      <use xlink:href="#DejaVuSans-3" transform="translate(1124.328125 0)"/>
      <use xlink:href="#DejaVuSans-5c" transform="translate(1156.109375 0)"/>
      <use xlink:href="#DejaVuSans-48" transform="translate(1215.296875 0)"/>
      <use xlink:href="#DejaVuSans-44" transform="translate(1276.828125 0)"/>
      <use xlink:href="#DejaVuSans-55" transform="translate(1338.109375 0)"/>
      <use xlink:href="#DejaVuSans-56" transform="translate(1379.21875 0)"/>
      <use xlink:href="#DejaVuSans-3" transform="translate(1431.3125 0)"/>
      <use xlink:href="#DejaVuSans-b" transform="translate(1463.09375 0)"/>
      <use xlink:href="#DejaVuSans-72" transform="translate(1502.109375 0)"/>
      <use xlink:href="#DejaVuSans-26" transform="translate(1552.109375 0)"/>
      <use xlink:href="#DejaVuSans-c" transform="translate(1621.9375 0)"/>
     </g>
    </g>
   </g>
   <g id="matplotlib.axis_2">
    <g id="ytick_1">
     <g id="line2d_8">
      <defs>
       <path id="mb0b769d100" d="M 0 0
L -3.5 0
" style="stroke: #000000; stroke-width: 0.8"/>
      </defs>
      <g>
       <use xlink:href="#mb0b769d100" x="186.38774" y="374.395054" style="stroke: #000000; stroke-width: 0.8"/>
      </g>
     </g>
     <g id="text_9">
      <!-- Caspian Sea -->
      <g transform="translate(117.667428 378.194273) scale(0.1 -0.1)">
       <defs>
        <path id="DejaVuSans-53" d="M 1159 525
L 1159 -1331
L 581 -1331
L 581 3500
L 1159 3500
L 1159 2969
Q 1341 3281 1617 3432
Q 1894 3584 2278 3584
Q 2916 3584 3314 3078
Q 3713 2572 3713 1747
Q 3713 922 3314 415
Q 2916 -91 2278 -91
Q 1894 -91 1617 61
Q 1341 213 1159 525
z
M 3116 1747
Q 3116 2381 2855 2742
Q 2594 3103 2138 3103
Q 1681 3103 1420 2742
Q 1159 2381 1159 1747
Q 1159 1113 1420 752
Q 1681 391 2138 391
Q 2594 391 2855 752
Q 3116 1113 3116 1747
z
" transform="scale(0.015625)"/>
        <path id="DejaVuSans-4c" d="M 603 3500
L 1178 3500
L 1178 0
L 603 0
L 603 3500
z
M 603 4863
L 1178 4863
L 1178 4134
L 603 4134
L 603 4863
z
" transform="scale(0.015625)"/>
        <path id="DejaVuSans-51" d="M 3513 2113
L 3513 0
L 2938 0
L 2938 2094
Q 2938 2591 2744 2837
Q 2550 3084 2163 3084
Q 1697 3084 1428 2787
Q 1159 2491 1159 1978
L 1159 0
L 581 0
L 581 3500
L 1159 3500
L 1159 2956
Q 1366 3272 1645 3428
Q 1925 3584 2291 3584
Q 2894 3584 3203 3211
Q 3513 2838 3513 2113
z
" transform="scale(0.015625)"/>
        <path id="DejaVuSans-36" d="M 3425 4513
L 3425 3897
Q 3066 4069 2747 4153
Q 2428 4238 2131 4238
Q 1616 4238 1336 4038
Q 1056 3838 1056 3469
Q 1056 3159 1242 3001
Q 1428 2844 1947 2747
L 2328 2669
Q 3034 2534 3370 2195
Q 3706 1856 3706 1288
Q 3706 609 3251 259
Q 2797 -91 1919 -91
Q 1588 -91 1214 -16
Q 841 59 441 206
L 441 856
Q 825 641 1194 531
Q 1563 422 1919 422
Q 2459 422 2753 634
Q 3047 847 3047 1241
Q 3047 1584 2836 1778
Q 2625 1972 2144 2069
L 1759 2144
Q 1053 2284 737 2584
Q 422 2884 422 3419
Q 422 4038 858 4394
Q 1294 4750 2059 4750
Q 2388 4750 2728 4690
Q 3069 4631 3425 4513
z
" transform="scale(0.015625)"/>
       </defs>
       <use xlink:href="#DejaVuSans-26"/>
       <use xlink:href="#DejaVuSans-44" transform="translate(69.828125 0)"/>
       <use xlink:href="#DejaVuSans-56" transform="translate(131.109375 0)"/>
       <use xlink:href="#DejaVuSans-53" transform="translate(183.203125 0)"/>
       <use xlink:href="#DejaVuSans-4c" transform="translate(246.6875 0)"/>
       <use xlink:href="#DejaVuSans-44" transform="translate(274.46875 0)"/>
       <use xlink:href="#DejaVuSans-51" transform="translate(335.75 0)"/>
       <use xlink:href="#DejaVuSans-3" transform="translate(399.125 0)"/>
       <use xlink:href="#DejaVuSans-36" transform="translate(430.90625 0)"/>
       <use xlink:href="#DejaVuSans-48" transform="translate(494.390625 0)"/>
       <use xlink:href="#DejaVuSans-44" transform="translate(555.921875 0)"/>
      </g>
     </g>
    </g>
    <g id="ytick_2">
     <g id="line2d_9">
      <g>
       <use xlink:href="#mb0b769d100" x="186.38774" y="358.553494" style="stroke: #000000; stroke-width: 0.8"/>
      </g>
     </g>
     <g id="text_10">
      <!-- Arctic Ocean -->
      <g transform="translate(115.79399 362.352713) scale(0.1 -0.1)">
       <defs>
        <path id="DejaVuSans-32" d="M 2522 4238
Q 1834 4238 1429 3725
Q 1025 3213 1025 2328
Q 1025 1447 1429 934
Q 1834 422 2522 422
Q 3209 422 3611 934
Q 4013 1447 4013 2328
Q 4013 3213 3611 3725
Q 3209 4238 2522 4238
z
M 2522 4750
Q 3503 4750 4090 4092
Q 4678 3434 4678 2328
Q 4678 1225 4090 567
Q 3503 -91 2522 -91
Q 1538 -91 948 565
Q 359 1222 359 2328
Q 359 3434 948 4092
Q 1538 4750 2522 4750
z
" transform="scale(0.015625)"/>
       </defs>
       <use xlink:href="#DejaVuSans-24"/>
       <use xlink:href="#DejaVuSans-55" transform="translate(68.40625 0)"/>
       <use xlink:href="#DejaVuSans-46" transform="translate(107.3125 0)"/>
       <use xlink:href="#DejaVuSans-57" transform="translate(162.296875 0)"/>
       <use xlink:href="#DejaVuSans-4c" transform="translate(201.5 0)"/>
       <use xlink:href="#DejaVuSans-46" transform="translate(229.28125 0)"/>
       <use xlink:href="#DejaVuSans-3" transform="translate(284.265625 0)"/>
       <use xlink:href="#DejaVuSans-32" transform="translate(316.046875 0)"/>
       <use xlink:href="#DejaVuSans-46" transform="translate(394.765625 0)"/>
       <use xlink:href="#DejaVuSans-48" transform="translate(449.75 0)"/>
       <use xlink:href="#DejaVuSans-44" transform="translate(511.28125 0)"/>
       <use xlink:href="#DejaVuSans-51" transform="translate(572.5625 0)"/>
      </g>
     </g>
    </g>
    <g id="ytick_3">
     <g id="line2d_10">
      <g>
       <use xlink:href="#mb0b769d100" x="186.38774" y="342.711934" style="stroke: #000000; stroke-width: 0.8"/>
      </g>
     </g>
     <g id="text_11">
      <!-- Southern Ocean -->
      <g transform="translate(98.73149 346.511152) scale(0.1 -0.1)">
       <defs>
        <path id="DejaVuSans-58" d="M 544 1381
L 544 3500
L 1119 3500
L 1119 1403
Q 1119 906 1312 657
Q 1506 409 1894 409
Q 2359 409 2629 706
Q 2900 1003 2900 1516
L 2900 3500
L 3475 3500
L 3475 0
L 2900 0
L 2900 538
Q 2691 219 2414 64
Q 2138 -91 1772 -91
Q 1169 -91 856 284
Q 544 659 544 1381
z
M 1991 3584
L 1991 3584
z
" transform="scale(0.015625)"/>
        <path id="DejaVuSans-4b" d="M 3513 2113
L 3513 0
L 2938 0
L 2938 2094
Q 2938 2591 2744 2837
Q 2550 3084 2163 3084
Q 1697 3084 1428 2787
Q 1159 2491 1159 1978
L 1159 0
L 581 0
L 581 4863
L 1159 4863
L 1159 2956
Q 1366 3272 1645 3428
Q 1925 3584 2291 3584
Q 2894 3584 3203 3211
Q 3513 2838 3513 2113
z
" transform="scale(0.015625)"/>
       </defs>
       <use xlink:href="#DejaVuSans-36"/>
       <use xlink:href="#DejaVuSans-52" transform="translate(63.484375 0)"/>
       <use xlink:href="#DejaVuSans-58" transform="translate(124.671875 0)"/>
       <use xlink:href="#DejaVuSans-57" transform="translate(188.046875 0)"/>
       <use xlink:href="#DejaVuSans-4b" transform="translate(227.25 0)"/>
       <use xlink:href="#DejaVuSans-48" transform="translate(290.625 0)"/>
       <use xlink:href="#DejaVuSans-55" transform="translate(352.15625 0)"/>
       <use xlink:href="#DejaVuSans-51" transform="translate(391.515625 0)"/>
       <use xlink:href="#DejaVuSans-3" transform="translate(454.890625 0)"/>
       <use xlink:href="#DejaVuSans-32" transform="translate(486.671875 0)"/>
       <use xlink:href="#DejaVuSans-46" transform="translate(565.390625 0)"/>
       <use xlink:href="#DejaVuSans-48" transform="translate(620.375 0)"/>
       <use xlink:href="#DejaVuSans-44" transform="translate(681.90625 0)"/>
       <use xlink:href="#DejaVuSans-51" transform="translate(743.1875 0)"/>
      </g>
     </g>
    </g>
    <g id="ytick_4">
     <g id="line2d_11">
      <g>
       <use xlink:href="#mb0b769d100" x="186.38774" y="326.870373" style="stroke: #000000; stroke-width: 0.8"/>
      </g>
     </g>
     <g id="text_12">
      <!-- North Pacific Ocean -->
      <g transform="translate(81.290865 330.669592) scale(0.1 -0.1)">
       <defs>
        <path id="DejaVuSans-31" d="M 628 4666
L 1478 4666
L 3547 763
L 3547 4666
L 4159 4666
L 4159 0
L 3309 0
L 1241 3903
L 1241 0
L 628 0
L 628 4666
z
" transform="scale(0.015625)"/>
        <path id="DejaVuSans-33" d="M 1259 4147
L 1259 2394
L 2053 2394
Q 2494 2394 2734 2622
Q 2975 2850 2975 3272
Q 2975 3691 2734 3919
Q 2494 4147 2053 4147
L 1259 4147
z
M 628 4666
L 2053 4666
Q 2838 4666 3239 4311
Q 3641 3956 3641 3272
Q 3641 2581 3239 2228
Q 2838 1875 2053 1875
L 1259 1875
L 1259 0
L 628 0
L 628 4666
z
" transform="scale(0.015625)"/>
       </defs>
       <use xlink:href="#DejaVuSans-31"/>
       <use xlink:href="#DejaVuSans-52" transform="translate(74.8125 0)"/>
       <use xlink:href="#DejaVuSans-55" transform="translate(136 0)"/>
       <use xlink:href="#DejaVuSans-57" transform="translate(177.109375 0)"/>
       <use xlink:href="#DejaVuSans-4b" transform="translate(216.3125 0)"/>
       <use xlink:href="#DejaVuSans-3" transform="translate(279.6875 0)"/>
       <use xlink:href="#DejaVuSans-33" transform="translate(311.46875 0)"/>
       <use xlink:href="#DejaVuSans-44" transform="translate(367.28125 0)"/>
       <use xlink:href="#DejaVuSans-46" transform="translate(428.5625 0)"/>
       <use xlink:href="#DejaVuSans-4c" transform="translate(483.546875 0)"/>
       <use xlink:href="#DejaVuSans-13af" transform="translate(511.328125 0)"/>
       <use xlink:href="#DejaVuSans-46" transform="translate(574.3125 0)"/>
       <use xlink:href="#DejaVuSans-3" transform="translate(629.296875 0)"/>
       <use xlink:href="#DejaVuSans-32" transform="translate(661.078125 0)"/>
       <use xlink:href="#DejaVuSans-46" transform="translate(739.796875 0)"/>
       <use xlink:href="#DejaVuSans-48" transform="translate(794.78125 0)"/>
       <use xlink:href="#DejaVuSans-44" transform="translate(856.3125 0)"/>
       <use xlink:href="#DejaVuSans-51" transform="translate(917.59375 0)"/>
      </g>
     </g>
    </g>
    <g id="ytick_5">
     <g id="line2d_12">
      <g>
       <use xlink:href="#mb0b769d100" x="186.38774" y="311.028813" style="stroke: #000000; stroke-width: 0.8"/>
      </g>
     </g>
     <g id="text_13">
      <!-- South Atlantic Ocean -->
      <g transform="translate(73.953365 314.828032) scale(0.1 -0.1)">
       <defs>
        <path id="DejaVuSans-4f" d="M 603 4863
L 1178 4863
L 1178 0
L 603 0
L 603 4863
z
" transform="scale(0.015625)"/>
       </defs>
       <use xlink:href="#DejaVuSans-36"/>
       <use xlink:href="#DejaVuSans-52" transform="translate(63.484375 0)"/>
       <use xlink:href="#DejaVuSans-58" transform="translate(124.671875 0)"/>
       <use xlink:href="#DejaVuSans-57" transform="translate(188.046875 0)"/>
       <use xlink:href="#DejaVuSans-4b" transform="translate(227.25 0)"/>
       <use xlink:href="#DejaVuSans-3" transform="translate(290.625 0)"/>
       <use xlink:href="#DejaVuSans-24" transform="translate(322.40625 0)"/>
       <use xlink:href="#DejaVuSans-57" transform="translate(389.0625 0)"/>
       <use xlink:href="#DejaVuSans-4f" transform="translate(428.265625 0)"/>
       <use xlink:href="#DejaVuSans-44" transform="translate(456.046875 0)"/>
       <use xlink:href="#DejaVuSans-51" transform="translate(517.328125 0)"/>
       <use xlink:href="#DejaVuSans-57" transform="translate(580.703125 0)"/>
       <use xlink:href="#DejaVuSans-4c" transform="translate(619.90625 0)"/>
       <use xlink:href="#DejaVuSans-46" transform="translate(647.6875 0)"/>
       <use xlink:href="#DejaVuSans-3" transform="translate(702.671875 0)"/>
       <use xlink:href="#DejaVuSans-32" transform="translate(734.453125 0)"/>
       <use xlink:href="#DejaVuSans-46" transform="translate(813.171875 0)"/>
       <use xlink:href="#DejaVuSans-48" transform="translate(868.15625 0)"/>
       <use xlink:href="#DejaVuSans-44" transform="translate(929.6875 0)"/>
       <use xlink:href="#DejaVuSans-51" transform="translate(990.96875 0)"/>
      </g>
     </g>
    </g>
    <g id="ytick_6">
     <g id="line2d_13">
      <g>
       <use xlink:href="#mb0b769d100" x="186.38774" y="295.187253" style="stroke: #000000; stroke-width: 0.8"/>
      </g>
     </g>
     <g id="text_14">
      <!-- Bay of Bengal -->
      <g transform="translate(109.878365 298.986472) scale(0.1 -0.1)">
       <defs>
        <path id="DejaVuSans-25" d="M 1259 2228
L 1259 519
L 2272 519
Q 2781 519 3026 730
Q 3272 941 3272 1375
Q 3272 1813 3026 2020
Q 2781 2228 2272 2228
L 1259 2228
z
M 1259 4147
L 1259 2741
L 2194 2741
Q 2656 2741 2882 2914
Q 3109 3088 3109 3444
Q 3109 3797 2882 3972
Q 2656 4147 2194 4147
L 1259 4147
z
M 628 4666
L 2241 4666
Q 2963 4666 3353 4366
Q 3744 4066 3744 3513
Q 3744 3084 3544 2831
Q 3344 2578 2956 2516
Q 3422 2416 3680 2098
Q 3938 1781 3938 1306
Q 3938 681 3513 340
Q 3088 0 2303 0
L 628 0
L 628 4666
z
" transform="scale(0.015625)"/>
        <path id="DejaVuSans-4a" d="M 2906 1791
Q 2906 2416 2648 2759
Q 2391 3103 1925 3103
Q 1463 3103 1205 2759
Q 947 2416 947 1791
Q 947 1169 1205 825
Q 1463 481 1925 481
Q 2391 481 2648 825
Q 2906 1169 2906 1791
z
M 3481 434
Q 3481 -459 3084 -895
Q 2688 -1331 1869 -1331
Q 1566 -1331 1297 -1286
Q 1028 -1241 775 -1147
L 775 -588
Q 1028 -725 1275 -790
Q 1522 -856 1778 -856
Q 2344 -856 2625 -561
Q 2906 -266 2906 331
L 2906 616
Q 2728 306 2450 153
Q 2172 0 1784 0
Q 1141 0 747 490
Q 353 981 353 1791
Q 353 2603 747 3093
Q 1141 3584 1784 3584
Q 2172 3584 2450 3431
Q 2728 3278 2906 2969
L 2906 3500
L 3481 3500
L 3481 434
z
" transform="scale(0.015625)"/>
       </defs>
       <use xlink:href="#DejaVuSans-25"/>
       <use xlink:href="#DejaVuSans-44" transform="translate(68.609375 0)"/>
       <use xlink:href="#DejaVuSans-5c" transform="translate(129.890625 0)"/>
       <use xlink:href="#DejaVuSans-3" transform="translate(189.078125 0)"/>
       <use xlink:href="#DejaVuSans-52" transform="translate(220.859375 0)"/>
       <use xlink:href="#DejaVuSans-49" transform="translate(282.046875 0)"/>
       <use xlink:href="#DejaVuSans-3" transform="translate(317.25 0)"/>
       <use xlink:href="#DejaVuSans-25" transform="translate(349.03125 0)"/>
       <use xlink:href="#DejaVuSans-48" transform="translate(417.640625 0)"/>
       <use xlink:href="#DejaVuSans-51" transform="translate(479.171875 0)"/>
       <use xlink:href="#DejaVuSans-4a" transform="translate(542.546875 0)"/>
       <use xlink:href="#DejaVuSans-44" transform="translate(606.03125 0)"/>
       <use xlink:href="#DejaVuSans-4f" transform="translate(667.3125 0)"/>
      </g>
     </g>
    </g>
    <g id="ytick_7">
     <g id="line2d_14">
      <g>
       <use xlink:href="#mb0b769d100" x="186.38774" y="279.345693" style="stroke: #000000; stroke-width: 0.8"/>
      </g>
     </g>
     <g id="text_15">
      <!-- Indian Ocean -->
      <g transform="translate(113.340865 283.144912) scale(0.1 -0.1)">
       <defs>
        <path id="DejaVuSans-2c" d="M 628 4666
L 1259 4666
L 1259 0
L 628 0
L 628 4666
z
" transform="scale(0.015625)"/>
        <path id="DejaVuSans-47" d="M 2906 2969
L 2906 4863
L 3481 4863
L 3481 0
L 2906 0
L 2906 525
Q 2725 213 2448 61
Q 2172 -91 1784 -91
Q 1150 -91 751 415
Q 353 922 353 1747
Q 353 2572 751 3078
Q 1150 3584 1784 3584
Q 2172 3584 2448 3432
Q 2725 3281 2906 2969
z
M 947 1747
Q 947 1113 1208 752
Q 1469 391 1925 391
Q 2381 391 2643 752
Q 2906 1113 2906 1747
Q 2906 2381 2643 2742
Q 2381 3103 1925 3103
Q 1469 3103 1208 2742
Q 947 2381 947 1747
z
" transform="scale(0.015625)"/>
       </defs>
       <use xlink:href="#DejaVuSans-2c"/>
       <use xlink:href="#DejaVuSans-51" transform="translate(29.5 0)"/>
       <use xlink:href="#DejaVuSans-47" transform="translate(92.875 0)"/>
       <use xlink:href="#DejaVuSans-4c" transform="translate(156.359375 0)"/>
       <use xlink:href="#DejaVuSans-44" transform="translate(184.140625 0)"/>
       <use xlink:href="#DejaVuSans-51" transform="translate(245.421875 0)"/>
       <use xlink:href="#DejaVuSans-3" transform="translate(308.796875 0)"/>
       <use xlink:href="#DejaVuSans-32" transform="translate(340.578125 0)"/>
       <use xlink:href="#DejaVuSans-46" transform="translate(419.296875 0)"/>
       <use xlink:href="#DejaVuSans-48" transform="translate(474.28125 0)"/>
       <use xlink:href="#DejaVuSans-44" transform="translate(535.8125 0)"/>
       <use xlink:href="#DejaVuSans-51" transform="translate(597.09375 0)"/>
      </g>
     </g>
    </g>
    <g id="ytick_8">
     <g id="line2d_15">
      <g>
       <use xlink:href="#mb0b769d100" x="186.38774" y="263.504133" style="stroke: #000000; stroke-width: 0.8"/>
      </g>
     </g>
     <g id="text_16">
      <!-- Red Sea -->
      <g transform="translate(138.578365 267.303351) scale(0.1 -0.1)">
       <defs>
        <path id="DejaVuSans-35" d="M 2841 2188
Q 3044 2119 3236 1894
Q 3428 1669 3622 1275
L 4263 0
L 3584 0
L 2988 1197
Q 2756 1666 2539 1819
Q 2322 1972 1947 1972
L 1259 1972
L 1259 0
L 628 0
L 628 4666
L 2053 4666
Q 2853 4666 3247 4331
Q 3641 3997 3641 3322
Q 3641 2881 3436 2590
Q 3231 2300 2841 2188
z
M 1259 4147
L 1259 2491
L 2053 2491
Q 2509 2491 2742 2702
Q 2975 2913 2975 3322
Q 2975 3731 2742 3939
Q 2509 4147 2053 4147
L 1259 4147
z
" transform="scale(0.015625)"/>
       </defs>
       <use xlink:href="#DejaVuSans-35"/>
       <use xlink:href="#DejaVuSans-48" transform="translate(65 0)"/>
       <use xlink:href="#DejaVuSans-47" transform="translate(126.53125 0)"/>
       <use xlink:href="#DejaVuSans-3" transform="translate(190.015625 0)"/>
       <use xlink:href="#DejaVuSans-36" transform="translate(221.796875 0)"/>
       <use xlink:href="#DejaVuSans-48" transform="translate(285.28125 0)"/>
       <use xlink:href="#DejaVuSans-44" transform="translate(346.8125 0)"/>
      </g>
     </g>
    </g>
    <g id="ytick_9">
     <g id="line2d_16">
      <g>
       <use xlink:href="#mb0b769d100" x="186.38774" y="247.662572" style="stroke: #000000; stroke-width: 0.8"/>
      </g>
     </g>
     <g id="text_17">
      <!-- South China Sea -->
      <g transform="translate(96.77524 251.461791) scale(0.1 -0.1)">
       <use xlink:href="#DejaVuSans-36"/>
       <use xlink:href="#DejaVuSans-52" transform="translate(63.484375 0)"/>
       <use xlink:href="#DejaVuSans-58" transform="translate(124.671875 0)"/>
       <use xlink:href="#DejaVuSans-57" transform="translate(188.046875 0)"/>
       <use xlink:href="#DejaVuSans-4b" transform="translate(227.25 0)"/>
       <use xlink:href="#DejaVuSans-3" transform="translate(290.625 0)"/>
       <use xlink:href="#DejaVuSans-26" transform="translate(322.40625 0)"/>
       <use xlink:href="#DejaVuSans-4b" transform="translate(392.234375 0)"/>
       <use xlink:href="#DejaVuSans-4c" transform="translate(455.609375 0)"/>
       <use xlink:href="#DejaVuSans-51" transform="translate(483.390625 0)"/>
       <use xlink:href="#DejaVuSans-44" transform="translate(546.765625 0)"/>
       <use xlink:href="#DejaVuSans-3" transform="translate(608.046875 0)"/>
       <use xlink:href="#DejaVuSans-36" transform="translate(639.828125 0)"/>
       <use xlink:href="#DejaVuSans-48" transform="translate(703.3125 0)"/>
       <use xlink:href="#DejaVuSans-44" transform="translate(764.84375 0)"/>
      </g>
     </g>
    </g>
    <g id="ytick_10">
     <g id="line2d_17">
      <g>
       <use xlink:href="#mb0b769d100" x="186.38774" y="231.821012" style="stroke: #000000; stroke-width: 0.8"/>
      </g>
     </g>
     <g id="text_18">
      <!-- South Pacific Ocean -->
      <g transform="translate(80.197115 235.620231) scale(0.1 -0.1)">
       <use xlink:href="#DejaVuSans-36"/>
       <use xlink:href="#DejaVuSans-52" transform="translate(63.484375 0)"/>
       <use xlink:href="#DejaVuSans-58" transform="translate(124.671875 0)"/>
       <use xlink:href="#DejaVuSans-57" transform="translate(188.046875 0)"/>
       <use xlink:href="#DejaVuSans-4b" transform="translate(227.25 0)"/>
       <use xlink:href="#DejaVuSans-3" transform="translate(290.625 0)"/>
       <use xlink:href="#DejaVuSans-33" transform="translate(322.40625 0)"/>
       <use xlink:href="#DejaVuSans-44" transform="translate(378.21875 0)"/>
       <use xlink:href="#DejaVuSans-46" transform="translate(439.5 0)"/>
       <use xlink:href="#DejaVuSans-4c" transform="translate(494.484375 0)"/>
       <use xlink:href="#DejaVuSans-13af" transform="translate(522.265625 0)"/>
       <use xlink:href="#DejaVuSans-46" transform="translate(585.25 0)"/>
       <use xlink:href="#DejaVuSans-3" transform="translate(640.234375 0)"/>
       <use xlink:href="#DejaVuSans-32" transform="translate(672.015625 0)"/>
       <use xlink:href="#DejaVuSans-46" transform="translate(750.734375 0)"/>
       <use xlink:href="#DejaVuSans-48" transform="translate(805.71875 0)"/>
       <use xlink:href="#DejaVuSans-44" transform="translate(867.25 0)"/>
       <use xlink:href="#DejaVuSans-51" transform="translate(928.53125 0)"/>
      </g>
     </g>
    </g>
    <g id="ytick_11">
     <g id="line2d_18">
      <g>
       <use xlink:href="#mb0b769d100" x="186.38774" y="215.979452" style="stroke: #000000; stroke-width: 0.8"/>
      </g>
     </g>
     <g id="text_19">
      <!-- North Atlantic Ocean -->
      <g transform="translate(75.047115 219.778671) scale(0.1 -0.1)">
       <use xlink:href="#DejaVuSans-31"/>
       <use xlink:href="#DejaVuSans-52" transform="translate(74.8125 0)"/>
       <use xlink:href="#DejaVuSans-55" transform="translate(136 0)"/>
       <use xlink:href="#DejaVuSans-57" transform="translate(177.109375 0)"/>
       <use xlink:href="#DejaVuSans-4b" transform="translate(216.3125 0)"/>
       <use xlink:href="#DejaVuSans-3" transform="translate(279.6875 0)"/>
       <use xlink:href="#DejaVuSans-24" transform="translate(311.46875 0)"/>
       <use xlink:href="#DejaVuSans-57" transform="translate(378.125 0)"/>
       <use xlink:href="#DejaVuSans-4f" transform="translate(417.328125 0)"/>
       <use xlink:href="#DejaVuSans-44" transform="translate(445.109375 0)"/>
       <use xlink:href="#DejaVuSans-51" transform="translate(506.390625 0)"/>
       <use xlink:href="#DejaVuSans-57" transform="translate(569.765625 0)"/>
       <use xlink:href="#DejaVuSans-4c" transform="translate(608.96875 0)"/>
       <use xlink:href="#DejaVuSans-46" transform="translate(636.75 0)"/>
       <use xlink:href="#DejaVuSans-3" transform="translate(691.734375 0)"/>
       <use xlink:href="#DejaVuSans-32" transform="translate(723.515625 0)"/>
       <use xlink:href="#DejaVuSans-46" transform="translate(802.234375 0)"/>
       <use xlink:href="#DejaVuSans-48" transform="translate(857.21875 0)"/>
       <use xlink:href="#DejaVuSans-44" transform="translate(918.75 0)"/>
       <use xlink:href="#DejaVuSans-51" transform="translate(980.03125 0)"/>
      </g>
     </g>
    </g>
    <g id="ytick_12">
     <g id="line2d_19">
      <g>
       <use xlink:href="#mb0b769d100" x="186.38774" y="200.137892" style="stroke: #000000; stroke-width: 0.8"/>
      </g>
     </g>
     <g id="text_20">
      <!-- Gulf of Mexico -->
      <g transform="translate(108.08774 203.937111) scale(0.1 -0.1)">
       <defs>
        <path id="DejaVuSans-2a" d="M 3809 666
L 3809 1919
L 2778 1919
L 2778 2438
L 4434 2438
L 4434 434
Q 4069 175 3628 42
Q 3188 -91 2688 -91
Q 1594 -91 976 548
Q 359 1188 359 2328
Q 359 3472 976 4111
Q 1594 4750 2688 4750
Q 3144 4750 3555 4637
Q 3966 4525 4313 4306
L 4313 3634
Q 3963 3931 3569 4081
Q 3175 4231 2741 4231
Q 1884 4231 1454 3753
Q 1025 3275 1025 2328
Q 1025 1384 1454 906
Q 1884 428 2741 428
Q 3075 428 3337 486
Q 3600 544 3809 666
z
" transform="scale(0.015625)"/>
        <path id="DejaVuSans-5b" d="M 3513 3500
L 2247 1797
L 3578 0
L 2900 0
L 1881 1375
L 863 0
L 184 0
L 1544 1831
L 300 3500
L 978 3500
L 1906 2253
L 2834 3500
L 3513 3500
z
" transform="scale(0.015625)"/>
       </defs>
       <use xlink:href="#DejaVuSans-2a"/>
       <use xlink:href="#DejaVuSans-58" transform="translate(77.484375 0)"/>
       <use xlink:href="#DejaVuSans-4f" transform="translate(140.859375 0)"/>
       <use xlink:href="#DejaVuSans-49" transform="translate(168.640625 0)"/>
       <use xlink:href="#DejaVuSans-3" transform="translate(203.84375 0)"/>
       <use xlink:href="#DejaVuSans-52" transform="translate(235.625 0)"/>
       <use xlink:href="#DejaVuSans-49" transform="translate(296.8125 0)"/>
       <use xlink:href="#DejaVuSans-3" transform="translate(332.015625 0)"/>
       <use xlink:href="#DejaVuSans-30" transform="translate(363.796875 0)"/>
       <use xlink:href="#DejaVuSans-48" transform="translate(450.078125 0)"/>
       <use xlink:href="#DejaVuSans-5b" transform="translate(509.859375 0)"/>
       <use xlink:href="#DejaVuSans-4c" transform="translate(569.046875 0)"/>
       <use xlink:href="#DejaVuSans-46" transform="translate(596.828125 0)"/>
       <use xlink:href="#DejaVuSans-52" transform="translate(651.8125 0)"/>
      </g>
     </g>
    </g>
    <g id="ytick_13">
     <g id="line2d_20">
      <g>
       <use xlink:href="#mb0b769d100" x="186.38774" y="184.296332" style="stroke: #000000; stroke-width: 0.8"/>
      </g>
     </g>
     <g id="text_21">
      <!-- Coral Sea -->
      <g transform="translate(131.461178 188.09555) scale(0.1 -0.1)">
       <use xlink:href="#DejaVuSans-26"/>
       <use xlink:href="#DejaVuSans-52" transform="translate(69.828125 0)"/>
       <use xlink:href="#DejaVuSans-55" transform="translate(131.015625 0)"/>
       <use xlink:href="#DejaVuSans-44" transform="translate(172.125 0)"/>
       <use xlink:href="#DejaVuSans-4f" transform="translate(233.40625 0)"/>
       <use xlink:href="#DejaVuSans-3" transform="translate(261.1875 0)"/>
       <use xlink:href="#DejaVuSans-36" transform="translate(292.96875 0)"/>
       <use xlink:href="#DejaVuSans-48" transform="translate(356.453125 0)"/>
       <use xlink:href="#DejaVuSans-44" transform="translate(417.984375 0)"/>
      </g>
     </g>
    </g>
    <g id="ytick_14">
     <g id="line2d_21">
      <g>
       <use xlink:href="#mb0b769d100" x="186.38774" y="168.454771" style="stroke: #000000; stroke-width: 0.8"/>
      </g>
     </g>
     <g id="text_22">
      <!-- North Sea -->
      <g transform="translate(129.611178 172.25399) scale(0.1 -0.1)">
       <use xlink:href="#DejaVuSans-31"/>
       <use xlink:href="#DejaVuSans-52" transform="translate(74.8125 0)"/>
       <use xlink:href="#DejaVuSans-55" transform="translate(136 0)"/>
       <use xlink:href="#DejaVuSans-57" transform="translate(177.109375 0)"/>
       <use xlink:href="#DejaVuSans-4b" transform="translate(216.3125 0)"/>
       <use xlink:href="#DejaVuSans-3" transform="translate(279.6875 0)"/>
       <use xlink:href="#DejaVuSans-36" transform="translate(311.46875 0)"/>
       <use xlink:href="#DejaVuSans-48" transform="translate(374.953125 0)"/>
       <use xlink:href="#DejaVuSans-44" transform="translate(436.484375 0)"/>
      </g>
     </g>
    </g>
    <g id="ytick_15">
     <g id="line2d_22">
      <g>
       <use xlink:href="#mb0b769d100" x="186.38774" y="152.613211" style="stroke: #000000; stroke-width: 0.8"/>
      </g>
     </g>
     <g id="text_23">
      <!-- Arabian Sea -->
      <g transform="translate(118.908053 156.41243) scale(0.1 -0.1)">
       <defs>
        <path id="DejaVuSans-45" d="M 3116 1747
Q 3116 2381 2855 2742
Q 2594 3103 2138 3103
Q 1681 3103 1420 2742
Q 1159 2381 1159 1747
Q 1159 1113 1420 752
Q 1681 391 2138 391
Q 2594 391 2855 752
Q 3116 1113 3116 1747
z
M 1159 2969
Q 1341 3281 1617 3432
Q 1894 3584 2278 3584
Q 2916 3584 3314 3078
Q 3713 2572 3713 1747
Q 3713 922 3314 415
Q 2916 -91 2278 -91
Q 1894 -91 1617 61
Q 1341 213 1159 525
L 1159 0
L 581 0
L 581 4863
L 1159 4863
L 1159 2969
z
" transform="scale(0.015625)"/>
       </defs>
       <use xlink:href="#DejaVuSans-24"/>
       <use xlink:href="#DejaVuSans-55" transform="translate(68.40625 0)"/>
       <use xlink:href="#DejaVuSans-44" transform="translate(109.515625 0)"/>
       <use xlink:href="#DejaVuSans-45" transform="translate(170.796875 0)"/>
       <use xlink:href="#DejaVuSans-4c" transform="translate(234.28125 0)"/>
       <use xlink:href="#DejaVuSans-44" transform="translate(262.0625 0)"/>
       <use xlink:href="#DejaVuSans-51" transform="translate(323.34375 0)"/>
       <use xlink:href="#DejaVuSans-3" transform="translate(386.71875 0)"/>
       <use xlink:href="#DejaVuSans-36" transform="translate(418.5 0)"/>
       <use xlink:href="#DejaVuSans-48" transform="translate(481.984375 0)"/>
       <use xlink:href="#DejaVuSans-44" transform="translate(543.515625 0)"/>
      </g>
     </g>
    </g>
    <g id="ytick_16">
     <g id="line2d_23">
      <g>
       <use xlink:href="#mb0b769d100" x="186.38774" y="136.771651" style="stroke: #000000; stroke-width: 0.8"/>
      </g>
     </g>
     <g id="text_24">
      <!-- Caribbean Sea -->
      <g transform="translate(106.264303 140.57087) scale(0.1 -0.1)">
       <use xlink:href="#DejaVuSans-26"/>
       <use xlink:href="#DejaVuSans-44" transform="translate(69.828125 0)"/>
       <use xlink:href="#DejaVuSans-55" transform="translate(131.109375 0)"/>
       <use xlink:href="#DejaVuSans-4c" transform="translate(172.21875 0)"/>
       <use xlink:href="#DejaVuSans-45" transform="translate(200 0)"/>
       <use xlink:href="#DejaVuSans-45" transform="translate(263.484375 0)"/>
       <use xlink:href="#DejaVuSans-48" transform="translate(326.96875 0)"/>
       <use xlink:href="#DejaVuSans-44" transform="translate(388.5 0)"/>
       <use xlink:href="#DejaVuSans-51" transform="translate(449.78125 0)"/>
       <use xlink:href="#DejaVuSans-3" transform="translate(513.15625 0)"/>
       <use xlink:href="#DejaVuSans-36" transform="translate(544.9375 0)"/>
       <use xlink:href="#DejaVuSans-48" transform="translate(608.421875 0)"/>
       <use xlink:href="#DejaVuSans-44" transform="translate(669.953125 0)"/>
      </g>
     </g>
    </g>
    <g id="ytick_17">
     <g id="line2d_24">
      <g>
       <use xlink:href="#mb0b769d100" x="186.38774" y="120.930091" style="stroke: #000000; stroke-width: 0.8"/>
      </g>
     </g>
     <g id="text_25">
      <!-- Mediterranean Sea - Eastern Basin -->
      <g transform="translate(6.008053 124.729309) scale(0.1 -0.1)">
       <defs>
        <path id="DejaVuSans-10" d="M 313 2009
L 1997 2009
L 1997 1497
L 313 1497
L 313 2009
z
" transform="scale(0.015625)"/>
       </defs>
       <use xlink:href="#DejaVuSans-30"/>
       <use xlink:href="#DejaVuSans-48" transform="translate(86.28125 0)"/>
       <use xlink:href="#DejaVuSans-47" transform="translate(147.8125 0)"/>
       <use xlink:href="#DejaVuSans-4c" transform="translate(211.296875 0)"/>
       <use xlink:href="#DejaVuSans-57" transform="translate(239.078125 0)"/>
       <use xlink:href="#DejaVuSans-48" transform="translate(278.28125 0)"/>
       <use xlink:href="#DejaVuSans-55" transform="translate(339.8125 0)"/>
       <use xlink:href="#DejaVuSans-55" transform="translate(379.171875 0)"/>
       <use xlink:href="#DejaVuSans-44" transform="translate(420.28125 0)"/>
       <use xlink:href="#DejaVuSans-51" transform="translate(481.5625 0)"/>
       <use xlink:href="#DejaVuSans-48" transform="translate(544.9375 0)"/>
       <use xlink:href="#DejaVuSans-44" transform="translate(606.46875 0)"/>
       <use xlink:href="#DejaVuSans-51" transform="translate(667.75 0)"/>
       <use xlink:href="#DejaVuSans-3" transform="translate(731.125 0)"/>
       <use xlink:href="#DejaVuSans-36" transform="translate(762.90625 0)"/>
       <use xlink:href="#DejaVuSans-48" transform="translate(826.390625 0)"/>
       <use xlink:href="#DejaVuSans-44" transform="translate(887.921875 0)"/>
       <use xlink:href="#DejaVuSans-3" transform="translate(949.203125 0)"/>
       <use xlink:href="#DejaVuSans-10" transform="translate(980.984375 0)"/>
       <use xlink:href="#DejaVuSans-3" transform="translate(1017.0625 0)"/>
       <use xlink:href="#DejaVuSans-28" transform="translate(1048.84375 0)"/>
       <use xlink:href="#DejaVuSans-44" transform="translate(1112.03125 0)"/>
       <use xlink:href="#DejaVuSans-56" transform="translate(1173.3125 0)"/>
       <use xlink:href="#DejaVuSans-57" transform="translate(1225.40625 0)"/>
       <use xlink:href="#DejaVuSans-48" transform="translate(1264.609375 0)"/>
       <use xlink:href="#DejaVuSans-55" transform="translate(1326.140625 0)"/>
       <use xlink:href="#DejaVuSans-51" transform="translate(1365.5 0)"/>
       <use xlink:href="#DejaVuSans-3" transform="translate(1428.875 0)"/>
       <use xlink:href="#DejaVuSans-25" transform="translate(1460.65625 0)"/>
       <use xlink:href="#DejaVuSans-44" transform="translate(1529.265625 0)"/>
       <use xlink:href="#DejaVuSans-56" transform="translate(1590.546875 0)"/>
       <use xlink:href="#DejaVuSans-4c" transform="translate(1642.640625 0)"/>
       <use xlink:href="#DejaVuSans-51" transform="translate(1670.421875 0)"/>
      </g>
     </g>
    </g>
    <g id="ytick_18">
     <g id="line2d_25">
      <g>
       <use xlink:href="#mb0b769d100" x="186.38774" y="105.088531" style="stroke: #000000; stroke-width: 0.8"/>
      </g>
     </g>
     <g id="text_26">
      <!-- Bering Sea -->
      <g transform="translate(124.990865 108.887749) scale(0.1 -0.1)">
       <use xlink:href="#DejaVuSans-25"/>
       <use xlink:href="#DejaVuSans-48" transform="translate(68.609375 0)"/>
       <use xlink:href="#DejaVuSans-55" transform="translate(130.140625 0)"/>
       <use xlink:href="#DejaVuSans-4c" transform="translate(171.25 0)"/>
       <use xlink:href="#DejaVuSans-51" transform="translate(199.03125 0)"/>
       <use xlink:href="#DejaVuSans-4a" transform="translate(262.40625 0)"/>
       <use xlink:href="#DejaVuSans-3" transform="translate(325.890625 0)"/>
       <use xlink:href="#DejaVuSans-36" transform="translate(357.671875 0)"/>
       <use xlink:href="#DejaVuSans-48" transform="translate(421.15625 0)"/>
       <use xlink:href="#DejaVuSans-44" transform="translate(482.6875 0)"/>
      </g>
     </g>
    </g>
    <g id="ytick_19">
     <g id="line2d_26">
      <g>
       <use xlink:href="#mb0b769d100" x="186.38774" y="89.24697" style="stroke: #000000; stroke-width: 0.8"/>
      </g>
     </g>
     <g id="text_27">
      <!-- Mediterranean Sea - Western Basin -->
      <g transform="translate(3.00024 93.046189) scale(0.1 -0.1)">
       <defs>
        <path id="DejaVuSans-3a" d="M 213 4666
L 850 4666
L 1831 722
L 2809 4666
L 3519 4666
L 4500 722
L 5478 4666
L 6119 4666
L 4947 0
L 4153 0
L 3169 4050
L 2175 0
L 1381 0
L 213 4666
z
" transform="scale(0.015625)"/>
       </defs>
       <use xlink:href="#DejaVuSans-30"/>
       <use xlink:href="#DejaVuSans-48" transform="translate(86.28125 0)"/>
       <use xlink:href="#DejaVuSans-47" transform="translate(147.8125 0)"/>
       <use xlink:href="#DejaVuSans-4c" transform="translate(211.296875 0)"/>
       <use xlink:href="#DejaVuSans-57" transform="translate(239.078125 0)"/>
       <use xlink:href="#DejaVuSans-48" transform="translate(278.28125 0)"/>
       <use xlink:href="#DejaVuSans-55" transform="translate(339.8125 0)"/>
       <use xlink:href="#DejaVuSans-55" transform="translate(379.171875 0)"/>
       <use xlink:href="#DejaVuSans-44" transform="translate(420.28125 0)"/>
       <use xlink:href="#DejaVuSans-51" transform="translate(481.5625 0)"/>
       <use xlink:href="#DejaVuSans-48" transform="translate(544.9375 0)"/>
       <use xlink:href="#DejaVuSans-44" transform="translate(606.46875 0)"/>
       <use xlink:href="#DejaVuSans-51" transform="translate(667.75 0)"/>
       <use xlink:href="#DejaVuSans-3" transform="translate(731.125 0)"/>
       <use xlink:href="#DejaVuSans-36" transform="translate(762.90625 0)"/>
       <use xlink:href="#DejaVuSans-48" transform="translate(826.390625 0)"/>
       <use xlink:href="#DejaVuSans-44" transform="translate(887.921875 0)"/>
       <use xlink:href="#DejaVuSans-3" transform="translate(949.203125 0)"/>
       <use xlink:href="#DejaVuSans-10" transform="translate(980.984375 0)"/>
       <use xlink:href="#DejaVuSans-3" transform="translate(1017.0625 0)"/>
       <use xlink:href="#DejaVuSans-3a" transform="translate(1048.84375 0)"/>
       <use xlink:href="#DejaVuSans-48" transform="translate(1141.859375 0)"/>
       <use xlink:href="#DejaVuSans-56" transform="translate(1203.390625 0)"/>
       <use xlink:href="#DejaVuSans-57" transform="translate(1255.484375 0)"/>
       <use xlink:href="#DejaVuSans-48" transform="translate(1294.6875 0)"/>
       <use xlink:href="#DejaVuSans-55" transform="translate(1356.21875 0)"/>
       <use xlink:href="#DejaVuSans-51" transform="translate(1395.578125 0)"/>
       <use xlink:href="#DejaVuSans-3" transform="translate(1458.953125 0)"/>
       <use xlink:href="#DejaVuSans-25" transform="translate(1490.734375 0)"/>
       <use xlink:href="#DejaVuSans-44" transform="translate(1559.34375 0)"/>
       <use xlink:href="#DejaVuSans-56" transform="translate(1620.625 0)"/>
       <use xlink:href="#DejaVuSans-4c" transform="translate(1672.71875 0)"/>
       <use xlink:href="#DejaVuSans-51" transform="translate(1700.5 0)"/>
      </g>
     </g>
    </g>
    <g id="ytick_20">
     <g id="line2d_27">
      <g>
       <use xlink:href="#mb0b769d100" x="186.38774" y="73.40541" style="stroke: #000000; stroke-width: 0.8"/>
      </g>
     </g>
     <g id="text_28">
      <!-- Tasman Sea -->
      <g transform="translate(119.583053 77.204238) scale(0.1 -0.1)">
       <defs>
        <path id="DejaVuSans-37" d="M -19 4666
L 3928 4666
L 3928 4134
L 2272 4134
L 2272 0
L 1638 0
L 1638 4134
L -19 4134
L -19 4666
z
" transform="scale(0.015625)"/>
        <path id="DejaVuSans-50" d="M 3328 2828
Q 3544 3216 3844 3400
Q 4144 3584 4550 3584
Q 5097 3584 5394 3201
Q 5691 2819 5691 2113
L 5691 0
L 5113 0
L 5113 2094
Q 5113 2597 4934 2840
Q 4756 3084 4391 3084
Q 3944 3084 3684 2787
Q 3425 2491 3425 1978
L 3425 0
L 2847 0
L 2847 2094
Q 2847 2600 2669 2842
Q 2491 3084 2119 3084
Q 1678 3084 1418 2786
Q 1159 2488 1159 1978
L 1159 0
L 581 0
L 581 3500
L 1159 3500
L 1159 2956
Q 1356 3278 1631 3431
Q 1906 3584 2284 3584
Q 2666 3584 2933 3390
Q 3200 3197 3328 2828
z
" transform="scale(0.015625)"/>
       </defs>
       <use xlink:href="#DejaVuSans-37"/>
       <use xlink:href="#DejaVuSans-44" transform="translate(44.53125 0)"/>
       <use xlink:href="#DejaVuSans-56" transform="translate(105.8125 0)"/>
       <use xlink:href="#DejaVuSans-50" transform="translate(157.90625 0)"/>
       <use xlink:href="#DejaVuSans-44" transform="translate(255.3125 0)"/>
       <use xlink:href="#DejaVuSans-51" transform="translate(316.59375 0)"/>
       <use xlink:href="#DejaVuSans-3" transform="translate(379.96875 0)"/>
       <use xlink:href="#DejaVuSans-36" transform="translate(411.75 0)"/>
       <use xlink:href="#DejaVuSans-48" transform="translate(475.234375 0)"/>
       <use xlink:href="#DejaVuSans-44" transform="translate(536.765625 0)"/>
      </g>
     </g>
    </g>
    <g id="ytick_21">
     <g id="line2d_28">
      <g>
       <use xlink:href="#mb0b769d100" x="186.38774" y="57.56385" style="stroke: #000000; stroke-width: 0.8"/>
      </g>
     </g>
     <g id="text_29">
      <!-- Black Sea -->
      <g transform="translate(130.523678 61.363069) scale(0.1 -0.1)">
       <defs>
        <path id="DejaVuSans-4e" d="M 581 4863
L 1159 4863
L 1159 1991
L 2875 3500
L 3609 3500
L 1753 1863
L 3688 0
L 2938 0
L 1159 1709
L 1159 0
L 581 0
L 581 4863
z
" transform="scale(0.015625)"/>
       </defs>
       <use xlink:href="#DejaVuSans-25"/>
       <use xlink:href="#DejaVuSans-4f" transform="translate(68.609375 0)"/>
       <use xlink:href="#DejaVuSans-44" transform="translate(96.390625 0)"/>
       <use xlink:href="#DejaVuSans-46" transform="translate(157.671875 0)"/>
       <use xlink:href="#DejaVuSans-4e" transform="translate(212.65625 0)"/>
       <use xlink:href="#DejaVuSans-3" transform="translate(270.5625 0)"/>
       <use xlink:href="#DejaVuSans-36" transform="translate(302.34375 0)"/>
       <use xlink:href="#DejaVuSans-48" transform="translate(365.828125 0)"/>
       <use xlink:href="#DejaVuSans-44" transform="translate(427.359375 0)"/>
      </g>
     </g>
    </g>
    <g id="ytick_22">
     <g id="line2d_29">
      <g>
       <use xlink:href="#mb0b769d100" x="186.38774" y="41.72229" style="stroke: #000000; stroke-width: 0.8"/>
      </g>
     </g>
     <g id="text_30">
      <!-- Baltic Sea -->
      <g transform="translate(129.615865 45.521508) scale(0.1 -0.1)">
       <use xlink:href="#DejaVuSans-25"/>
       <use xlink:href="#DejaVuSans-44" transform="translate(68.609375 0)"/>
       <use xlink:href="#DejaVuSans-4f" transform="translate(129.890625 0)"/>
       <use xlink:href="#DejaVuSans-57" transform="translate(157.671875 0)"/>
       <use xlink:href="#DejaVuSans-4c" transform="translate(196.875 0)"/>
       <use xlink:href="#DejaVuSans-46" transform="translate(224.65625 0)"/>
       <use xlink:href="#DejaVuSans-3" transform="translate(279.640625 0)"/>
       <use xlink:href="#DejaVuSans-36" transform="translate(311.421875 0)"/>
       <use xlink:href="#DejaVuSans-48" transform="translate(374.90625 0)"/>
       <use xlink:href="#DejaVuSans-44" transform="translate(436.4375 0)"/>
      </g>
     </g>
    </g>
   </g>
   <g id="patch_25">
    <path d="M 186.38774 397.998979
L 186.38774 18.118365
" style="fill: none; stroke: #000000; stroke-width: 0.8; stroke-linejoin: miter; stroke-linecap: square"/>
   </g>
   <g id="patch_26">
    <path d="M 186.38774 397.998979
L 716.99976 397.998979
" style="fill: none; stroke: #000000; stroke-width: 0.8; stroke-linejoin: miter; stroke-linecap: square"/>
   </g>
   <g id="text_31">
    <!-- Regional errors · untouched 2021–2025 test -->
    <g transform="translate(319.620625 12.118365) scale(0.12 -0.12)">
     <defs>
      <path id="DejaVuSans-79" d="M 684 2619
L 1344 2619
L 1344 1825
L 684 1825
L 684 2619
z
" transform="scale(0.015625)"/>
      <path id="DejaVuSans-af5" d="M 313 1978
L 2888 1978
L 2888 1528
L 313 1528
L 313 1978
z
" transform="scale(0.015625)"/>
     </defs>
     <use xlink:href="#DejaVuSans-35"/>
     <use xlink:href="#DejaVuSans-48" transform="translate(65 0)"/>
     <use xlink:href="#DejaVuSans-4a" transform="translate(126.53125 0)"/>
     <use xlink:href="#DejaVuSans-4c" transform="translate(190.015625 0)"/>
     <use xlink:href="#DejaVuSans-52" transform="translate(217.796875 0)"/>
     <use xlink:href="#DejaVuSans-51" transform="translate(278.984375 0)"/>
     <use xlink:href="#DejaVuSans-44" transform="translate(342.359375 0)"/>
     <use xlink:href="#DejaVuSans-4f" transform="translate(403.640625 0)"/>
     <use xlink:href="#DejaVuSans-3" transform="translate(431.421875 0)"/>
     <use xlink:href="#DejaVuSans-48" transform="translate(463.203125 0)"/>
     <use xlink:href="#DejaVuSans-55" transform="translate(524.734375 0)"/>
     <use xlink:href="#DejaVuSans-55" transform="translate(564.09375 0)"/>
     <use xlink:href="#DejaVuSans-52" transform="translate(603 0)"/>
     <use xlink:href="#DejaVuSans-55" transform="translate(664.1875 0)"/>
     <use xlink:href="#DejaVuSans-56" transform="translate(705.296875 0)"/>
     <use xlink:href="#DejaVuSans-3" transform="translate(757.390625 0)"/>
     <use xlink:href="#DejaVuSans-79" transform="translate(789.171875 0)"/>
     <use xlink:href="#DejaVuSans-3" transform="translate(820.953125 0)"/>
     <use xlink:href="#DejaVuSans-58" transform="translate(852.734375 0)"/>
     <use xlink:href="#DejaVuSans-51" transform="translate(916.109375 0)"/>
     <use xlink:href="#DejaVuSans-57" transform="translate(979.484375 0)"/>
     <use xlink:href="#DejaVuSans-52" transform="translate(1018.6875 0)"/>
     <use xlink:href="#DejaVuSans-58" transform="translate(1079.875 0)"/>
     <use xlink:href="#DejaVuSans-46" transform="translate(1143.25 0)"/>
     <use xlink:href="#DejaVuSans-4b" transform="translate(1198.234375 0)"/>
     <use xlink:href="#DejaVuSans-48" transform="translate(1261.609375 0)"/>
     <use xlink:href="#DejaVuSans-47" transform="translate(1323.140625 0)"/>
     <use xlink:href="#DejaVuSans-3" transform="translate(1386.625 0)"/>
     <use xlink:href="#DejaVuSans-15" transform="translate(1418.40625 0)"/>
     <use xlink:href="#DejaVuSans-13" transform="translate(1482.03125 0)"/>
     <use xlink:href="#DejaVuSans-15" transform="translate(1545.65625 0)"/>
     <use xlink:href="#DejaVuSans-14" transform="translate(1609.28125 0)"/>
     <use xlink:href="#DejaVuSans-af5" transform="translate(1672.90625 0)"/>
     <use xlink:href="#DejaVuSans-15" transform="translate(1722.90625 0)"/>
     <use xlink:href="#DejaVuSans-13" transform="translate(1786.53125 0)"/>
     <use xlink:href="#DejaVuSans-15" transform="translate(1850.15625 0)"/>
     <use xlink:href="#DejaVuSans-18" transform="translate(1913.78125 0)"/>
     <use xlink:href="#DejaVuSans-3" transform="translate(1977.40625 0)"/>
     <use xlink:href="#DejaVuSans-57" transform="translate(2009.1875 0)"/>
     <use xlink:href="#DejaVuSans-48" transform="translate(2048.390625 0)"/>
     <use xlink:href="#DejaVuSans-56" transform="translate(2109.921875 0)"/>
     <use xlink:href="#DejaVuSans-57" transform="translate(2162.015625 0)"/>
    </g>
   </g>
  </g>
 </g>
 <defs>
  <clipPath id="p1d00529823">
   <rect x="186.38774" y="18.118365" width="530.61202" height="379.880614"/>
  </clipPath>
 </defs>
</svg>
